<?xml version="1.0" encoding="utf-8"?>
<!-- Generator: Adobe Illustrator 24.1.0, SVG Export Plug-In . SVG Version: 6.00 Build 0)  -->
<svg version="1.1" xmlns="http://www.w3.org/2000/svg" xmlns:xlink="http://www.w3.org/1999/xlink" x="0px" y="0px"
	 viewBox="0 0 350 350" style="enable-background:new 0 0 350 350;" xml:space="preserve">
<style type="text/css">
	.st0{display:none;}
	.st1{display:inline;}
	.st2{fill:none;stroke:#ED1C24;stroke-width:3;stroke-linejoin:round;stroke-miterlimit:10;}
	.st3{fill:none;stroke:#ED1C24;stroke-width:3;stroke-linecap:round;stroke-linejoin:round;stroke-miterlimit:10;}
	.st4{fill:#ED1C24;}
	.st5{fill:none;stroke:#000000;stroke-width:4;stroke-linejoin:round;stroke-miterlimit:10;}
	.st6{fill:none;stroke:#000000;stroke-width:4;stroke-linecap:round;stroke-linejoin:round;stroke-miterlimit:10;}
	.st7{fill:#FFFFFF;stroke:#000000;stroke-width:4;stroke-linejoin:round;stroke-miterlimit:10;}
	.st8{fill:#FFFFFF;stroke:#000000;stroke-width:2;stroke-linejoin:round;stroke-miterlimit:10;}
	.st9{fill:none;stroke:#000000;stroke-width:2;stroke-linejoin:round;stroke-miterlimit:10;}
	.st10{fill:none;stroke:#000000;stroke-width:3;stroke-linecap:round;stroke-linejoin:round;stroke-miterlimit:10;}
	.st11{fill:none;stroke:#000000;stroke-width:5;stroke-linejoin:round;stroke-miterlimit:10;}
	.st12{fill:none;stroke:#000000;stroke-width:5;stroke-linecap:round;stroke-linejoin:round;stroke-miterlimit:10;}
	.st13{fill:#FFFFFF;stroke:#000000;stroke-width:5;stroke-linejoin:round;stroke-miterlimit:10;}
	.st14{fill:none;stroke:#000000;stroke-width:10.9494;stroke-linejoin:round;stroke-miterlimit:10;}
	.st15{fill:#FFFFFF;}
	.st16{fill:#850D16;}
	.st17{fill:#002A51;}
	.st18{fill:#5F060D;}
	.st19{fill:#15345B;}
	.st20{fill:#861719;}
	.st21{fill:none;stroke:#000000;stroke-width:2;stroke-miterlimit:10;}
</style>
<g id="Sketch" class="st0">
</g>
<g id="Line">
	<g>
		<path d="M260.19,60.73c-20.72-19.68-52.53-27.43-85.05-20.75c-31.67,6.51-57.1,25.54-68.02,50.91
			c-19.08,44.4-22.2,116.34-22.34,119.38v34.49h-0.14v15.22c0,8.62,6.98,15.6,15.6,15.6h96.6c8.62,0,15.6-6.98,15.6-15.6v-15.22
			h-0.14v-33.67c-0.05-17.08,0.44-60.74,2.05-69.31c2.93-15.11,9.94-29.4,20.28-41.36l0.19-0.19c0.11-0.11,0.22-0.22,0.3-0.36
			c6.73-7.69,14.56-14.04,23.27-18.86c1.67-0.93,4.46-2.49,5.99-5.78c0.03-0.03,0.03-0.03,0.03-0.05
			C265.44,72.97,267.08,67.11,260.19,60.73z M119.71,96.32c1.18-2.76,2.6-5.45,4.19-8.02c4,3.53,9.55,6.51,16.53,7.06l-34.03,47.88
			C109.52,126.76,113.82,109.98,119.71,96.32z M102.71,166.09l38.95-50.86c1.81,4.02,4.87,7.5,9.06,10.29
			c8.81,5.8,17.46,6.41,24.77,4.65c-11.61,28.47-34.52,69.75-63.15,73.77l-13.47-0.16C99.39,195.87,100.52,182.02,102.71,166.09z
			 M198.62,237.98H98.46v-20.04h0.68v-0.44l13.99,0.16l21.35,0.27h64.14V237.98z M198.62,204.25v0.79l-55.95-0.71l-6.93-0.08h7.04
			c20.42-16.56,35.07-44.65,43.5-64.46c2.55,3.07,6.79,6.49,13.74,7.94C198.95,163.05,198.71,190.78,198.62,204.25z M202.07,134.15
			c-2.38-0.6-4.16-1.7-5.39-3.26c-3.23-4.19-2.41-11.58-1.83-14.04c0.74-3.01-0.68-6.13-3.39-7.61c-2.74-1.48-6.13-0.93-8.27,1.34
			c-1.2,1.26-11.99,12.04-24.94,3.5c-3.75-2.46-4.49-4.93-4.71-6.57c-0.63-4.76,2.52-10.65,5.04-14.37c0.93-1.31,1.75-2.35,2.3-2.98
			l0.38-0.49c1.78-2.38,1.81-5.67,0.03-8.1c-1.89-2.6-5.37-3.53-8.29-2.22c-10.98,4.87-17.41,1.34-20.67-1.89
			c11.2-11.72,27.13-20.26,45.58-24.06c14.86-3.07,29.48-2.68,42.54,0.79v0.03c-4.46,14.1-0.44,27.84,2.49,34.98
			c0.38,0.96,0.77,1.83,1.12,2.57C213.43,104.15,205.9,118.68,202.07,134.15z"/>
		<path d="M134.49,217.94l64.14,0.82v-0.82H134.49z"/>
		<path d="M143.67,319.18h-25.63c-3.78,0-6.84-3.06-6.84-6.84v-56.25c0-3.78,3.06-6.84,6.84-6.84s6.84,3.06,6.84,6.84v49.41h18.78
			c3.78,0,6.84,3.06,6.84,6.84C150.51,316.11,147.45,319.18,143.67,319.18z"/>
		<path d="M200.14,319.18h-25.63c-3.78,0-6.84-3.06-6.84-6.84v-56.25c0-3.78,3.06-6.84,6.84-6.84s6.84,3.06,6.84,6.84v49.41h18.78
			c3.78,0,6.84,3.06,6.84,6.84C206.99,316.11,203.92,319.18,200.14,319.18z"/>
		<path class="st14" d="M229.34,50.19c-0.05,0.08-0.08,0.14-0.14,0.22"/>
		<g>
			<polygon class="st15" points="198.62,217.94 198.62,237.98 98.46,237.98 98.46,217.94 99.15,217.94 99.15,217.5 113.14,217.66 
				134.49,217.94 			"/>
			<path d="M113.14,217.66l-13.99-0.16v0.44h35.34L113.14,217.66z M135.75,204.25l6.93,0.08l55.95,0.71v-0.79H135.75z"/>
		</g>
		<path d="M113.14,217.66c-1.48,0.16-2.96,0.27-4.46,0.27c-0.27,0.03-0.57,0.03-0.85,0.03c-0.63,0-1.23,0-1.83-0.03h-6.84v-0.44
			L113.14,217.66z"/>
		<path d="M142.78,204.25c-0.03,0.03-0.05,0.08-0.11,0.08l-6.93-0.08H142.78z"/>
		<path d="M160.87,90.16l-2.3,2.98C159.51,91.83,160.33,90.79,160.87,90.16z"/>
		<g>
			<g>
				<path d="M190.62,75.59c3.58,0,7.01-3.15,6.84-6.84c-0.17-3.71-3.01-6.84-6.84-6.84c-3.58,0-7.01,3.15-6.84,6.84
					C183.94,72.46,186.78,75.59,190.62,75.59L190.62,75.59z"/>
			</g>
		</g>
	</g>
</g>
</svg>
