<svg xmlns="http://www.w3.org/2000/svg" width="180.57" height="281.55" viewBox="0 0 180.57 281.55"><polygon points="6.63 219.19 6.63 170.44 14.38 92.34 28.36 52.53 61.34 17.73 96.66 9.27 135.46 9.27 161.82 24.28 159.34 41.61 144.56 61.01 133.97 74.44 125.51 96.52 122.19 118.98 122.19 150.54 122.19 198.29 122.19 219.19 28.36 219.19 6.63 219.19" fill="#fff"/><path d="M198.62,204.25V205h0v-.79Z" transform="translate(-84.78 -37.63)"/><path d="M198.62,217.94v.82h0v-.82Zm-24.11,31.31a6.84,6.84,0,0,0-6.84,6.84v19.49h13.68V256.09A6.84,6.84,0,0,0,174.51,249.25Zm-56.47,0a6.84,6.84,0,0,0-6.84,6.84v19.49h13.68V256.09A6.84,6.84,0,0,0,118,249.25Z" transform="translate(-84.78 -37.63)"/><path d="M260.19,60.73C239.47,41.05,207.66,33.3,175.14,40c-31.67,6.51-57.1,25.54-68,50.91C88,135.29,84.92,207.23,84.78,210.27V260a15.48,15.48,0,0,0,15.46,15.6h11V256.09a6.84,6.84,0,1,1,13.68,0v19.49h42.79V256.09a6.84,6.84,0,0,1,13.68,0v19.49h15.49A15.48,15.48,0,0,0,212.3,260V211.09c-.05-17.08.44-60.74,2-69.31a89.48,89.48,0,0,1,20.28-41.36l.19-.19a1.74,1.74,0,0,0,.3-.36A86.68,86.68,0,0,1,258.39,81a13,13,0,0,0,6-5.78s0,0,0,0C265.44,73,267.08,67.11,260.19,60.73ZM119.71,96.32a60.55,60.55,0,0,1,4.19-8,28.16,28.16,0,0,0,16.53,7.06l-34,47.88C109.52,126.76,113.82,110,119.71,96.32Zm-17,69.77,39-50.86a24.56,24.56,0,0,0,9.06,10.29c8.81,5.8,17.46,6.41,24.77,4.65-11.61,28.47-34.52,69.75-63.15,73.77l-13.47-.16C99.39,195.87,100.52,182,102.71,166.09Zm95.92,52.67h0V238H98.46v-20H198.63Zm0-14.51V205h0v-.79H142.78c20.42-16.56,35.07-44.65,43.5-64.46A23.53,23.53,0,0,0,200,147.73c-1.07,15.32-1.31,43.05-1.4,56.52Zm3.44-70.1a9.57,9.57,0,0,1-5.39-3.26c-3.23-4.19-2.41-11.58-1.83-14a6.85,6.85,0,0,0-11.66-6.27c-1.2,1.26-12,12-24.94,3.5-3.75-2.46-4.49-4.93-4.71-6.57-.63-4.76,2.52-10.65,5-14.37l.11-.16c.42-.59.82-1.12,1.18-1.58.19-.26.38-.49.55-.69l.35-.42.11-.13.38-.49A6.84,6.84,0,0,0,153,79.35c-11,4.87-17.41,1.34-20.67-1.89,11.2-11.72,27.13-20.26,45.58-24.06a93,93,0,0,1,42.54.79v0c-4.46,14.1-.44,27.84,2.49,35,.38,1,.77,1.83,1.12,2.57A103.27,103.27,0,0,0,202.07,134.15Z" transform="translate(-84.78 -37.63)"/><rect x="113.84" y="180.31" width="0.01" height="0.82"/><path d="M150.5,312.34a6.83,6.83,0,0,1-6.83,6.84H118a6.84,6.84,0,0,1-6.84-6.84V256.09a6.84,6.84,0,1,1,13.68,0V305.5h18.78A6.84,6.84,0,0,1,150.5,312.34Z" transform="translate(-84.78 -37.63)"/><path d="M207,312.34a6.82,6.82,0,0,1-6.83,6.84H174.51a6.84,6.84,0,0,1-6.84-6.84V256.09a6.84,6.84,0,0,1,13.68,0V305.5h18.78A6.84,6.84,0,0,1,207,312.34Z" transform="translate(-84.78 -37.63)"/><path d="M229.34,50.19c-.05.08-.08.14-.14.22" transform="translate(-84.78 -37.63)" fill="none" stroke="#000" stroke-linejoin="round" stroke-width="10.95"/><path d="M198.62,217.94v20H98.46v-20l9.37,0c.21,0,.43,0,.64,0Z" transform="translate(-84.78 -37.63)" fill="#fff"/><line x1="14.37" y1="180.31" x2="14.37" y2="180.3" fill="#fff"/><path d="M108.47,217.94c-.21,0-.43,0-.64,0C107.36,218,108.47,217.94,108.47,217.94Z" transform="translate(-84.78 -37.63)" fill="#fff"/><path d="M198.62,204.25V205h0v-.79ZM99.15,217.93h0" transform="translate(-84.78 -37.63)"/><path d="M108.47,217.94" transform="translate(-84.78 -37.63)"/><path d="M160.77,90.29,158.69,93c.42-.59.82-1.12,1.18-1.58.2-.26.38-.49.55-.69Z" transform="translate(-84.78 -37.63)"/><path d="M190.62,75.59c3.58,0,7-3.15,6.84-6.84a7,7,0,0,0-6.84-6.84c-3.58,0-7,3.15-6.84,6.84a7,7,0,0,0,6.84,6.84Z" transform="translate(-84.78 -37.63)"/></svg>