<?xml version="1.0" encoding="utf-8"?>
<!-- Generator: Adobe Illustrator 24.1.0, SVG Export Plug-In . SVG Version: 6.00 Build 0)  -->
<svg version="1.1" xmlns="http://www.w3.org/2000/svg" xmlns:xlink="http://www.w3.org/1999/xlink" x="0px" y="0px"
	 viewBox="0 0 350 350" style="enable-background:new 0 0 350 350;" xml:space="preserve">
<style type="text/css">
	.st0{display:none;}
	.st1{display:inline;}
	.st2{fill:none;stroke:#ED1C24;stroke-width:3;stroke-linejoin:round;stroke-miterlimit:10;}
	.st3{fill:none;stroke:#ED1C24;stroke-width:3;stroke-linecap:round;stroke-linejoin:round;stroke-miterlimit:10;}
	.st4{fill:#ED1C24;}
	.st5{fill:none;stroke:#000000;stroke-width:4;stroke-linejoin:round;stroke-miterlimit:10;}
	.st6{fill:none;stroke:#000000;stroke-width:4;stroke-linecap:round;stroke-linejoin:round;stroke-miterlimit:10;}
	.st7{fill:#FFFFFF;stroke:#000000;stroke-width:4;stroke-linejoin:round;stroke-miterlimit:10;}
	.st8{fill:#FFFFFF;stroke:#000000;stroke-width:2;stroke-linejoin:round;stroke-miterlimit:10;}
	.st9{fill:none;stroke:#000000;stroke-width:2;stroke-linejoin:round;stroke-miterlimit:10;}
	.st10{fill:none;stroke:#000000;stroke-width:3;stroke-linecap:round;stroke-linejoin:round;stroke-miterlimit:10;}
	.st11{fill:none;stroke:#000000;stroke-width:5;stroke-linejoin:round;stroke-miterlimit:10;}
	.st12{fill:none;stroke:#000000;stroke-width:5;stroke-linecap:round;stroke-linejoin:round;stroke-miterlimit:10;}
	.st13{fill:#FFFFFF;stroke:#000000;stroke-width:5;stroke-linejoin:round;stroke-miterlimit:10;}
	.st14{fill:none;stroke:#000000;stroke-width:10.9494;stroke-linejoin:round;stroke-miterlimit:10;}
	.st15{fill:#FFFFFF;}
	.st16{fill:#850D16;}
	.st17{fill:#002A51;}
	.st18{fill:#5F060D;}
	.st19{fill:#15345B;}
	.st20{fill:#861719;}
	.st21{fill:none;stroke:#000000;stroke-width:2;stroke-miterlimit:10;}
</style>
<g id="Sketch" class="st0">
</g>
<g id="Line">
	<path d="M103.49,214.38c-1.43,0.42-2.86,0.78-4.35,1.04c-0.26,0.07-0.56,0.13-0.83,0.17c-0.62,0.11-1.21,0.21-1.81,0.29l-6.74,1.19
		l-0.08-0.43L103.49,214.38z"/>
	<g>
		<path d="M221.14,34.35c-23.82-15.8-56.49-17.92-87.36-5.71c-30.06,11.9-51.81,35.04-58.18,61.93
			C64.5,137.61,73.89,209,74.28,212.01l5.97,33.97l-0.13,0.02L82.75,261c1.49,8.49,9.58,14.16,18.07,12.66l95.14-16.73
			c8.49-1.49,14.16-9.58,12.66-18.07l-2.64-14.99l-0.13,0.02l-5.83-33.16c-3.01-16.81-10.09-59.9-9.98-68.62
			c0.27-15.39,4.69-30.68,12.81-44.25l0.16-0.22c0.09-0.13,0.18-0.25,0.23-0.4c5.3-8.74,11.91-16.35,19.65-22.61
			c1.48-1.21,3.96-3.23,4.9-6.73c0.02-0.03,0.02-0.03,0.02-0.06C228.43,45.49,229.04,39.44,221.14,34.35z M88.94,93.73
			c0.68-2.93,1.62-5.82,2.74-8.62c4.55,2.79,10.54,4.76,17.51,4.09l-25.22,53.05C84.19,125.47,85.51,108.2,88.94,93.73z
			 M84.29,165.39l29.56-56.84c2.48,3.65,6.1,6.54,10.71,8.57c9.69,4.19,18.31,3.28,25.2,0.29c-6.5,30.05-21.92,74.67-49.42,83.59
			l-13.29,2.17C86.18,195.3,84.89,181.46,84.29,165.39z M191.2,219.58l-98.65,17.35l-3.47-19.73l0.67-0.12l-0.08-0.43l13.8-2.26
			l21.08-3.43l63.17-11.11L191.2,219.58z M185.36,186.36l0.14,0.78l-55.23,8.99l-6.84,1.12l6.93-1.22
			c17.24-19.85,26.8-50.04,31.67-71.02c3.04,2.58,7.81,5.21,14.91,5.44C178.55,145.73,183.11,173.09,185.36,186.36z M176.62,116.72
			c-2.45-0.18-4.39-0.95-5.88-2.27c-3.91-3.57-4.38-10.99-4.24-13.51c0.21-3.09-1.74-5.92-4.66-6.91c-2.95-0.98-6.2,0.15-7.91,2.75
			c-0.97,1.45-9.72,13.94-23.95,7.77c-4.12-1.78-5.27-4.08-5.77-5.65c-1.44-4.58,0.64-10.92,2.47-15.03
			c0.69-1.46,1.32-2.62,1.75-3.34l0.29-0.55c1.34-2.65,0.8-5.89-1.38-7.98c-2.31-2.23-5.9-2.55-8.55-0.75
			c-9.97,6.7-16.91,4.34-20.68,1.72c9-13.48,23.21-24.65,40.72-31.59c14.11-5.59,28.57-7.75,42.03-6.59l0,0.03
			c-1.95,14.66,4.39,27.49,8.51,34.02c0.54,0.88,1.07,1.67,1.55,2.34C182.61,85.21,177.71,100.83,176.62,116.72z"/>
		<path d="M124.57,210.95l63.31-10.3l-0.14-0.81L124.57,210.95z"/>
		<path d="M143.67,319.18h-25.63c-3.78,0-6.84-3.06-6.84-6.84v-56.25c0-3.78,3.06-6.84,6.84-6.84s6.84,3.06,6.84,6.84v49.41h18.78
			c3.78,0,6.84,3.06,6.84,6.84C150.51,316.11,147.45,319.18,143.67,319.18z"/>
		<path d="M206.76,299.29l-25.24,4.44c-3.72,0.65-7.27-1.83-7.93-5.55l-9.74-55.4c-0.65-3.72,1.83-7.27,5.55-7.93
			c3.72-0.65,7.27,1.83,7.93,5.55l8.56,48.66l18.5-3.25c3.72-0.65,7.27,1.83,7.93,5.55C212.97,295.09,210.49,298.63,206.76,299.29z"
			/>
		<path class="st14" d="M188.93,29.32c-0.04,0.09-0.06,0.15-0.1,0.24"/>
		<g>
			<polygon class="st15" points="187.73,199.84 191.2,219.58 92.56,236.93 89.09,217.19 89.76,217.07 89.69,216.64 103.49,214.38 
				124.57,210.95 			"/>
			<path d="M103.49,214.38l-13.8,2.26l0.08,0.43l34.81-6.12L103.49,214.38z M123.44,197.25l6.84-1.12l55.23-8.99l-0.14-0.78
				L123.44,197.25z"/>
		</g>
		<path d="M130.36,196.04c-0.02,0.03-0.04,0.09-0.09,0.1l-6.84,1.12L130.36,196.04z"/>
		<path d="M128.43,80.53l-1.75,3.34C127.37,82.41,128,81.25,128.43,80.53z"/>
		<g>
			<g>
				<path d="M154.01,61.14c3.58,0,7.01-3.15,6.84-6.84c-0.17-3.71-3.01-6.84-6.84-6.84c-3.58,0-7.01,3.15-6.84,6.84
					C147.33,58.01,150.17,61.14,154.01,61.14L154.01,61.14z"/>
			</g>
		</g>
	</g>
</g>
</svg>
