<?xml version="1.0" encoding="utf-8"?>
<!-- Generator: Adobe Illustrator 24.1.0, SVG Export Plug-In . SVG Version: 6.00 Build 0)  -->
<svg version="1.1" id="EM_x5F_Signature_xA0_Image_1_"
	 xmlns="http://www.w3.org/2000/svg" xmlns:xlink="http://www.w3.org/1999/xlink" x="0px" y="0px" viewBox="0 0 350 350"
	 style="enable-background:new 0 0 350 350;" xml:space="preserve">
<g>
	<path d="M233.64,81.99c-1.01-8.3-1.08-16.72-0.2-25.04c0.61-5.8,3.61-7.65,9.24-6.72c22.44,3.71,27.91,24.4,40.4,38.06
		c4.72,5.17,10.28,9.57,15.4,14.39c0.97,0.91,2.4,2.23,2.29,3.21c-0.18,1.62-1.05,3.89-2.31,4.53c-8.24,4.15-23.82,1.13-29.22-5.19
		c-1.47-1.73-4.17-2.42-6.3-3.58c-0.57,2.56-1.64,5.12-1.62,7.67c0.12,15.3,1.21,30.64,0.29,45.86
		c-0.29,4.71-10.44,12.87-14.75,14.21c-7.49,2.33-12.24-9.31-15.67-14.13c-5.59-7.84-11.12-15.71-16.48-23.71
		c-4.96-7.41-9.74-14.94-14.56-22.43c-4-6.21-7.89-14.78-13.27-19.88c-2.25-2.13-5.48-3.48-8.47-2.68c-1.04,0.28-2.06,0.85-2.6,1.8
		c-0.49,0.87-0.51,1.92-0.46,2.92c0.63,13.52,7.66,29.58,12.92,41.91c13.96,32.72,26.89,65.72,33.28,100.86
		c0.47,2.56-2.64,7.64-5.1,8.44c-4.24,1.38-9.65,8.35-13.88,0.2c-9.59-18.48-17.59-38.02-26.57-56.83c-1.55-3.25-3.45-6.81-6.88-7.9
		c1.08,19.85,0.23,39.98-4.89,59.19c-3.95,14.82-10.54,29.1-20.13,41.14c-10.74,13.48-22.78,19.08-40.02,19.8
		c-3.4,0.14-7.06,0.63-10.09,2.05c-6.35,2.99-14.32,1.78-17.1-5.09c-3.49-8.62-3.78-19.95-6.11-29.07
		c-1.99-7.79-4.25-15.51-6.6-23.2c-1.86-6.1-2.4-13.47-9.1-15.99c-7.35-2.77-6.2-9.48-4.77-14.79c1.95-7.29,5.55-14.13,8.31-21.21
		c4.52-11.63,7.74-23.96,13.67-34.81c9.58-17.53,21.5-33.69,40.51-42.34c9.82-4.46,19.88-1.15,29.17,2.42
		c6.17,2.37,11.47,6.92,17.3,10.25c1.58,0.91,3.66,0.95,5.51,1.4c0.27-1.54,1.07-3.22,0.72-4.61c-3.51-14.31-6.8-29.36-8.58-44.25
		c-0.92-7.67-2.04-15.87-1.55-23.6c0.42-6.61,4.55-7.58,10.9-6.89c20.23,2.18,28.2,18.48,39.7,30.6
		c5.89,6.21,9.75,14.33,14.69,21.46c2.09,3.02,14.8,24.28,18.17,18.43c0.74-1.29,0.68-2.87,0.54-4.36
		c-0.87-9.63-3.64-18.99-5.16-28.54C233.98,84.63,233.8,83.31,233.64,81.99z M81.07,186.22c-0.1,0.87-0.03,1.74,0.3,2.56
		c1.12,2.81,4.83,3.68,7.76,2.94c6.12-1.54,12.34-5.93,17.95-8.73c6.48-3.24,13.03-6.3,19.82-8.85c7.89-2.96,17.88-1.5,25.28-4.86
		c1.78-0.81,3.19-2.8,2.65-4.68c-0.25-0.87-0.86-1.59-1.46-2.27c-6.66-7.65-13.19-15.1-20.67-21.96
		c-10.45-8.6-16.85-8.57-25.68,1.37c-10.53,11.85-18.8,26.1-24.83,40.71C81.69,183.66,81.21,184.95,81.07,186.22z M149.71,194.21
		c0.04-0.32,0.05-0.63,0-0.93c-0.3-2.01-1.66-3.67-2.97-5.23c-0.71-0.84-1.53-1.75-2.62-1.86c-0.57-0.06-1.14,0.11-1.68,0.28
		c-9.54,2.92-17.45,9.05-26.32,13.39c-8.04,3.94-27.24,5.82-30.33,15.97c-0.33,1.09-0.2,2.25-0.07,3.38
		c1.08,9.38,2.17,18.75,3.25,28.13c0.06,0.56,0.13,1.13,0.38,1.63c0.4,0.79,1.22,1.31,2.07,1.54c6.77,1.85,16.7-16.8,20.44-21.05
		c6.33-7.2,13.35-13.78,20.94-19.63C137.95,205.86,148.7,201.4,149.71,194.21z"/>
</g>
</svg>
