<?xml version="1.0" encoding="utf-8"?>
<!-- Generator: Adobe Illustrator 24.1.0, SVG Export Plug-In . SVG Version: 6.00 Build 0)  -->
<svg version="1.1" id="Layer_1" xmlns="http://www.w3.org/2000/svg" xmlns:xlink="http://www.w3.org/1999/xlink" x="0px" y="0px"
	 viewBox="0 0 500 500" style="enable-background:new 0 0 500 500;" xml:space="preserve">
<g>
	<path d="M167.97,414.53v0.12c0.21,0.01,0.43,0.01,0.64,0.01C168.4,414.62,168.18,414.58,167.97,414.53z"/>
	<path d="M173.15,414.74c-0.61,0.05-1.21,0.08-1.82,0.11c-0.94,0.05-1.84-0.02-2.72-0.19C170.14,414.69,171.64,414.72,173.15,414.74
		z"/>
	<path d="M168.61,414.66c-0.21,0-0.43,0-0.64-0.01v-0.12C168.18,414.58,168.4,414.62,168.61,414.66z"/>
	<path d="M173.15,414.74c-0.61,0.05-1.21,0.08-1.82,0.11c-0.94,0.05-1.84-0.02-2.72-0.19C170.14,414.69,171.64,414.72,173.15,414.74
		z"/>
	<path d="M467.26,39.55C433.29,7.35,384.17-6.12,332.53,2.59c-56.17,9.48-104,42.75-127.95,89.01
		C166.49,165.16,34.65,388.07,33.33,390.3c-2.33,3.94-2.21,8.87,0.32,12.7c3.77,5.72,4.45,6.75,93.32,10.4
		c14.44,0.6,28.1,1.02,41,1.25v-0.12c0.21,0.05,0.43,0.09,0.64,0.13c1.53,0.03,3.03,0.06,4.54,0.08c-0.61,0.05-1.21,0.08-1.82,0.11
		c-0.94,0.05-1.84-0.02-2.72-0.19c-0.21,0-0.43,0-0.64-0.01v73.38c0,6.62,5.36,11.97,11.97,11.97h59.2
		c6.62,0,11.97-5.36,11.97-11.97s-5.36-11.97-11.97-11.97h-47.22V414.9h1.6c31.37,0,57.21-1.23,77.19-3.71
		c2.01-0.24,4.06-0.52,6.17-0.82v77.65c0,6.62,5.36,11.97,11.97,11.97h59.2c6.62,0,11.97-5.36,11.97-11.97s-5.36-11.97-11.97-11.97
		h-47.22v-70.5c12.14-3.32,24.48-8.33,35.43-16.21c35.02-25.2,44.77-70.01,46.76-103.17c0.82-13.63,0.69-27.36,0.56-40.63
		c-0.22-22.35-0.44-43.45,3.54-64.15c8.55-44.53,37.34-84.26,76.97-106.28c2.95-1.63,7.89-4.39,10.57-10.19
		C476.42,61.08,479.24,50.92,467.26,39.55z M225.84,102.62c1.9-3.67,3.99-7.25,6.27-10.74c3.74,4.15,8.7,8.22,15.13,11.03
		c0.32,0.13,0.62,0.26,0.94,0.4c-16.38,20.52-25.23,49.76-34.98,81.99c-19.58,64.7-43.52,143.79-141.91,187.79
		C108.67,309.53,195.87,160.53,225.84,102.62z M265.12,338.2l-46.7-50.89l68.98,2.1c-0.8,2.41-1.63,4.82-2.48,7.2
		C279.66,311.26,273.23,325.48,265.12,338.2z M209.08,267.86c9.29-20.13,16.1-40.23,21.96-59.05l50.81,61.26L209.08,267.86z
		 M252.06,204.14l53.9,10.87c-3.02,14.37-6.04,28.64-9.51,42.65L252.06,204.14z M239.22,182c6.68-21.8,13.02-40.84,21.79-55.22
		c0.1,0.99,0.23,1.99,0.4,2.98c1.96,11.76,8.84,21.82,19.86,29.09c10.93,7.21,22.84,9.56,34.43,6.79c0.59-0.14,1.17-0.3,1.74-0.46
		c-0.56,2.03-1.1,4.04-1.63,6.05c-2.17,8.39-4.07,16.74-5.87,25.04L239.22,182z M95.68,387.91c49.54-25.53,80.25-59.96,100.99-95.96
		l18.69,20.37c-13.99,35.85-67.52,67.07-86.45,77.19C117.08,389.03,105.85,388.47,95.68,387.91z M242.83,364.75
		c-9.76,8.66-21.08,15.33-33.4,19.73c-8.9,3.21-18.29,5.25-27.89,6.41c-5.63-0.06-11.26-0.14-16.87-0.26
		c22.78-14.84,50.93-37.08,64.69-63.05l24.14,26.31C250.19,357.75,246.64,361.39,242.83,364.75z M359.62,245.79
		c0.12,12.86,0.25,26.15-0.51,38.95c-1.69,27.97-9.46,65.46-36.86,85.17c-16.08,11.56-37.56,15.44-54.49,17.52
		c-5.72,0.7-11.85,1.29-18.3,1.76c3.02-2.2,5.94-4.54,8.73-7.02c11.95-10.5,21.72-23.04,29.62-36.29
		c7.91-13.27,14.07-27.24,19.18-41.36c10.2-28.29,16.28-57.19,22.34-85.49c3.02-14.15,5.98-28.19,9.53-41.77
		c0.13-0.51,0.26-1.01,0.41-1.52c4,5.52,10.84,11.88,22.15,15.21C359.26,209.38,359.44,227.82,359.62,245.79z M365.76,167.15
		c-3.1-1.28-5.5-3.16-7.26-5.65c-6.4-9.09-4.15-25.18-2.76-30.56c1.56-5.8-1.45-11.87-7-14.15c-5.57-2.3-11.96-0.1-14.95,5.12
		c-2.56,4.45-12.37,17.76-23.64,20.45c-5.14,1.21-10.27,0.07-15.71-3.5c-5.45-3.59-8.53-7.84-9.41-12.97
		c-1.88-11.04,6.19-24.63,9.44-28.9c3.35-4.34,3.32-10.4-0.06-14.71c-3.39-4.31-9.28-5.76-14.28-3.54
		c-9.27,4.12-17.04,4.91-23.12,2.31c-4.46-1.9-7.59-5.41-9.58-8.38c22.57-23.66,54.36-40.58,89.09-46.44
		c21.19-3.58,41.81-2.86,60.66,1.84c-9.48,27.8-0.06,52.23,7.21,65.34C386.08,114.56,372.65,139.91,365.76,167.15z"/>
	<ellipse cx="349.49" cy="58.73" rx="11.63" ry="12.01"/>
</g>
</svg>
