<?xml version="1.0" encoding="utf-8"?>
<!-- Generator: Adobe Illustrator 24.1.0, SVG Export Plug-In . SVG Version: 6.00 Build 0)  -->
<svg version="1.1" id="Layer_1" xmlns="http://www.w3.org/2000/svg" xmlns:xlink="http://www.w3.org/1999/xlink" x="0px" y="0px"
	 viewBox="0 0 576 576" style="enable-background:new 0 0 576 576;" xml:space="preserve">
<style type="text/css">
	.st0{fill:#B0B3B2;stroke:#414545;stroke-width:12.5;stroke-linecap:round;stroke-linejoin:round;stroke-miterlimit:10;}
	.st1{fill:#B0B3B2;stroke:#414545;stroke-width:10;stroke-linecap:round;stroke-linejoin:round;stroke-miterlimit:10;}
	.st2{fill:#E1E2E2;stroke:#414545;stroke-width:12.5;stroke-linecap:round;stroke-linejoin:round;stroke-miterlimit:10;}
	.st3{fill:#424242;}
	.st4{fill:none;stroke:#414545;stroke-width:10;stroke-linecap:round;stroke-linejoin:round;stroke-miterlimit:10;}
	.st5{fill:#424546;}
	.st6{fill:#B0B3B2;}
	.st7{fill:#048A9F;}
	.st8{fill:#7EB141;stroke:#3B7F45;stroke-width:3.8336;stroke-linecap:round;stroke-linejoin:round;stroke-miterlimit:10;}
	.st9{fill:#7EB141;stroke:#3B7F45;stroke-width:2.788;stroke-linecap:round;stroke-linejoin:round;stroke-miterlimit:10;}
	.st10{fill:#B0B3B2;stroke:#414545;stroke-width:17.4951;stroke-linecap:round;stroke-linejoin:round;stroke-miterlimit:10;}
	.st11{fill:#B0B3B2;stroke:#414545;stroke-width:13.9961;stroke-linecap:round;stroke-linejoin:round;stroke-miterlimit:10;}
	.st12{fill:#E1E2E2;stroke:#414545;stroke-width:17.4951;stroke-linecap:round;stroke-linejoin:round;stroke-miterlimit:10;}
	.st13{fill:#CE982B;}
	.st14{fill:#7EB141;stroke:#3B7F45;stroke-width:17.4951;stroke-linecap:round;stroke-linejoin:round;stroke-miterlimit:10;}
	.st15{fill:none;stroke:#3B7F45;stroke-width:13.9961;stroke-linecap:round;stroke-linejoin:round;stroke-miterlimit:10;}
	.st16{fill:#FFDB00;stroke:#CE982B;stroke-width:17.4951;stroke-linecap:round;stroke-linejoin:round;stroke-miterlimit:10;}
	.st17{fill:#49C8F5;stroke:#048A9F;stroke-width:17.4951;stroke-linecap:round;stroke-linejoin:round;stroke-miterlimit:10;}
	.st18{fill:none;stroke:#048A9F;stroke-width:13.9961;stroke-linecap:round;stroke-linejoin:round;stroke-miterlimit:10;}
	.st19{fill:#7EB141;stroke:#3B7F45;stroke-width:12.5;stroke-linecap:round;stroke-linejoin:round;stroke-miterlimit:10;}
	.st20{fill:none;stroke:#3B7F45;stroke-width:10;stroke-linecap:round;stroke-linejoin:round;stroke-miterlimit:10;}
	.st21{fill:#FFDB00;stroke:#CE982B;stroke-width:12.5;stroke-linecap:round;stroke-linejoin:round;stroke-miterlimit:10;}
	.st22{fill:#49C8F5;stroke:#048A9F;stroke-width:12.5;stroke-linecap:round;stroke-linejoin:round;stroke-miterlimit:10;}
	.st23{fill:none;stroke:#048A9F;stroke-width:10;stroke-linecap:round;stroke-linejoin:round;stroke-miterlimit:10;}
	.st24{fill:#7EB141;}
	.st25{fill:#FFFFFF;}
	.st26{fill:#FFFFFF;stroke:#000000;stroke-width:0.6379;stroke-miterlimit:10;}
	.st27{fill:#FFFFFF;stroke:#000000;stroke-width:2;stroke-miterlimit:10;}
	.st28{fill:#FFFFFF;stroke:#000000;stroke-width:3;stroke-miterlimit:10;}
	.st29{fill:#FFFFFF;stroke:#000000;stroke-width:2;stroke-linecap:round;stroke-miterlimit:10;}
	.st30{fill:#FFFFFF;stroke:#000000;stroke-width:3;stroke-linecap:round;stroke-miterlimit:10;}
	.st31{fill:#FFDB00;stroke:#CE982B;stroke-width:3;stroke-miterlimit:10;}
	.st32{fill:#63AB45;stroke:#3A7C44;stroke-width:3;stroke-miterlimit:10;}
	.st33{fill:#3A7C44;}
	.st34{fill:none;stroke:#3A7C44;stroke-width:3;stroke-miterlimit:10;}
	.st35{fill:#63AB45;stroke:#275E30;stroke-width:3;stroke-miterlimit:10;}
	.st36{fill:#7EB142;stroke:#3B7E45;stroke-width:3;stroke-miterlimit:10;}
	.st37{fill:#FFDB00;stroke:#CE982B;stroke-width:5;stroke-linecap:round;stroke-linejoin:round;stroke-miterlimit:10;}
	.st38{fill:#49C8F5;stroke:#008A9F;stroke-width:5;stroke-linecap:round;stroke-linejoin:round;stroke-miterlimit:10;}
	.st39{fill:#008A9F;}
	.st40{fill:#7EB142;stroke:#3B7E45;stroke-width:5;stroke-linecap:round;stroke-linejoin:round;stroke-miterlimit:10;}
	.st41{fill:none;stroke:#3B7E45;stroke-width:5;stroke-linecap:round;stroke-linejoin:round;stroke-miterlimit:10;}
	.st42{fill:#7EB141;stroke:#3B7F45;stroke-width:2.5;stroke-linecap:round;stroke-linejoin:round;stroke-miterlimit:10;}
	.st43{fill:none;stroke:#3B7F45;stroke-width:2;stroke-linecap:round;stroke-linejoin:round;stroke-miterlimit:10;}
	.st44{fill:#FFDB00;stroke:#CE982B;stroke-width:2.5;stroke-linecap:round;stroke-linejoin:round;stroke-miterlimit:10;}
	.st45{fill:#49C8F5;stroke:#048A9F;stroke-width:2.5;stroke-linecap:round;stroke-linejoin:round;stroke-miterlimit:10;}
	.st46{fill:none;stroke:#048A9F;stroke-width:2;stroke-linecap:round;stroke-linejoin:round;stroke-miterlimit:10;}
	.st47{fill:#B0B3B2;stroke:#414545;stroke-width:2.5;stroke-linecap:round;stroke-linejoin:round;stroke-miterlimit:10;}
	.st48{fill:#B0B3B2;stroke:#414545;stroke-width:2;stroke-linecap:round;stroke-linejoin:round;stroke-miterlimit:10;}
	.st49{fill:#E1E2E2;stroke:#414545;stroke-width:2.5;stroke-linecap:round;stroke-linejoin:round;stroke-miterlimit:10;}
	.st50{fill:none;stroke:#414545;stroke-width:2;stroke-linecap:round;stroke-linejoin:round;stroke-miterlimit:10;}
	.st51{fill:#7EB141;stroke:#3B7F45;stroke-width:4.8471;stroke-linecap:round;stroke-linejoin:round;stroke-miterlimit:10;}
	.st52{fill:none;stroke:#3B7F45;stroke-width:3.8777;stroke-linecap:round;stroke-linejoin:round;stroke-miterlimit:10;}
	.st53{fill:#FFDB00;stroke:#CE982B;stroke-width:4.8471;stroke-linecap:round;stroke-linejoin:round;stroke-miterlimit:10;}
	.st54{fill:#49C8F5;stroke:#048A9F;stroke-width:4.8471;stroke-linecap:round;stroke-linejoin:round;stroke-miterlimit:10;}
	.st55{fill:none;stroke:#048A9F;stroke-width:3.8777;stroke-linecap:round;stroke-linejoin:round;stroke-miterlimit:10;}
	.st56{fill:#49C8F5;stroke:#007F94;stroke-width:4.8471;stroke-linecap:round;stroke-linejoin:round;stroke-miterlimit:10;}
	.st57{fill:#037F94;}
	.st58{fill:none;stroke:#037F94;stroke-width:3.8777;stroke-linecap:round;stroke-linejoin:round;stroke-miterlimit:10;}
	.st59{fill:#FFDB00;}
	.st60{fill:#FFFFFF;stroke:#3B7F45;stroke-width:2;stroke-linecap:round;stroke-linejoin:round;stroke-miterlimit:10;}
	.st61{fill:#FFFFFF;stroke:#000000;stroke-width:2.5;stroke-linecap:round;stroke-linejoin:round;stroke-miterlimit:10;}
	.st62{fill:#FFFFFF;stroke:#000000;stroke-width:1.7727;stroke-linecap:round;stroke-linejoin:round;stroke-miterlimit:10;}
	.st63{fill:#FFFFFF;stroke:#000000;stroke-width:2;stroke-linecap:round;stroke-linejoin:round;stroke-miterlimit:10;}
	.st64{fill:#49C8F5;stroke:#008A9F;stroke-width:2.5;stroke-linecap:round;stroke-linejoin:round;stroke-miterlimit:10;}
	.st65{fill:#49C8F5;stroke:#008A9F;stroke-width:2;stroke-linecap:round;stroke-linejoin:round;stroke-miterlimit:10;}
	.st66{fill:#49C8F5;stroke:#007F94;stroke-width:2.5;stroke-linecap:round;stroke-linejoin:round;stroke-miterlimit:10;}
	.st67{fill:none;stroke:#037F94;stroke-width:2;stroke-linecap:round;stroke-linejoin:round;stroke-miterlimit:10;}
	.st68{fill:#3B7F45;stroke:#3B7F45;stroke-width:0.75;stroke-linecap:round;stroke-linejoin:round;stroke-miterlimit:10;}
</style>
<g>
	<g>
		<g>
			<path class="st5" d="M93.99,507.57v0.69c0,2.27-1.3,4.33-3.36,5.38c-1.13,0.59-3.78,1.72-7.02,2.69
				c-3.23,0.99-7.06,1.83-10.65,1.83h-6.8c-12.14,0-25.22-8-25.22-25.56v-14.85c0-12.33,9.01-25.43,25.67-25.43h6.03
				c5.38,0,10.5,1.87,14.79,5.38c4.58,3.68,6.22,8.02,6.22,10.88c0,0.57-0.08,7.83-0.23,9.72c-0.17,3-2.65,5.38-5.69,5.38h-0.8
				c-3.15,0-5.71-2.54-5.71-5.69l-0.21-8.13c-0.04-2.18-4.77-5.1-8.13-5.1H67.4c-6.8,0-13.67,4.05-13.67,13.11v14.74
				c0,9.7,6.87,13.13,12.77,13.13h6.24c4.79,0,10.4-2.23,12.5-3.07c1.22-0.48,1.93-0.78,3.05-0.78
				C91.43,501.87,93.99,504.44,93.99,507.57z"/>
		</g>
		<g>
			<path class="st5" d="M152.17,511.09v0.67c0,3.15-2.56,5.71-5.71,5.71h-18.82c-3.15,0-5.71-2.56-5.71-5.71v-0.67
				c0-3.15,2.56-5.71,5.71-5.71l3.02-0.08v-40.14l-3.17-0.08c-1.49,0-2.9-0.63-3.91-1.68c-1.03-1.03-1.66-2.46-1.66-4.03v-0.67
				c0-3.15,2.56-5.71,5.71-5.71h9.85c3.23,0,5.94,2.73,5.94,5.94v46.37l3.17,0.08c1.49,0,2.9,0.65,3.91,1.68
				C151.54,508.09,152.17,509.52,152.17,511.09z"/>
		</g>
		<g>
			<path class="st5" d="M224.19,507.57v0.69c0,2.29-1.3,4.35-3.38,5.38c-0.06,0.04-9.2,4.52-16.4,4.52h-2.14
				c-4.37,0-8.53-1.64-11.09-4.39c-3.47-3.65-3.93-8.63-3.93-12.54v-35.81h-4.96c-3.13,0-5.69-2.56-5.69-5.71v-1.01
				c0-3.15,2.56-5.71,5.69-5.71h5.15l0.27-8.42c0-3.4,2.65-6.2,6.05-6.2h0.57c3.13,0,5.69,2.54,5.69,5.69v8.93h17.89
				c3.15,0,5.71,2.56,5.71,5.71v1.01c0,3.15-2.56,5.71-5.71,5.71h-17.89v36.71c0,3.49,0.74,3.49,2.69,3.49h2.06
				c3.47,0,8.59-2.1,10.5-2.9c1.34-0.55,2.08-0.84,3.21-0.84C221.63,501.87,224.19,504.44,224.19,507.57z"/>
		</g>
		<g>
			<path class="st5" d="M307.66,467.53c0,0.36-0.1,8.74-0.23,10.73c-0.17,3-2.67,5.4-5.69,5.4h-0.8c-3.15,0-5.71-2.54-5.71-5.69
				l-0.23-9.41c-0.17-1.18-2.88-3.68-4.22-3.82h-3.57c-2.92,0-5.94,2.39-13.57,10.92v29.59l6.3,0.13c1.53,0,2.92,0.65,3.95,1.68
				c1.03,1.03,1.66,2.46,1.66,4.03v0.67c0,3.15-2.56,5.71-5.71,5.71h-21.99c-3.15,0-5.71-2.56-5.71-5.71v-0.67
				c0-3.15,2.56-5.71,5.71-5.71l3.02-0.08v-40.14l-3.17-0.08c-1.51,0-2.9-0.63-3.91-1.68c-1.01-1.03-1.66-2.46-1.66-4.03v-0.67
				c0-3.15,2.56-5.71,5.71-5.71h9.75c2.98,0,5.44,2.31,5.69,5.23c0.57-0.5,1.09-0.97,1.6-1.34c3.09-2.35,6.8-4.56,12.79-4.56h3.4
				c3.02,0,7.65,1.39,11.53,5.27C305.73,460.71,307.66,464.51,307.66,467.53z"/>
		</g>
		<g>
			<path class="st5" d="M363.11,511.09v0.67c0,3.15-2.54,5.71-5.69,5.71h-18.84c-3.13,0-5.69-2.56-5.69-5.71v-0.67
				c0-3.15,2.56-5.71,5.69-5.71l3.05-0.08v-40.14l-3.17-0.08c-1.49,0-2.9-0.63-3.91-1.68c-1.03-1.03-1.66-2.46-1.66-4.03v-0.67
				c0-3.15,2.56-5.71,5.69-5.71h9.87c3.21,0,5.94,2.73,5.94,5.94v46.37l3.17,0.08c1.49,0,2.88,0.65,3.91,1.68
				C362.48,508.09,363.11,509.52,363.11,511.09z"/>
		</g>
		<g>
			<path class="st5" d="M441.26,497.82v3.07c0,10-8.02,17.26-19.09,17.26h-14.51c-4.49,0-8.76-1.41-11.99-3.97
				c-3.34-2.67-5.4-6.24-5.4-9.33c0-0.55,0.11-7.41,0.23-9.28c0.17-3,2.67-5.4,5.71-5.4h0.67c3.15,0,5.71,2.56,5.71,5.71l0.21,7.73
				c0.34,0.55,1.79,2.1,4.75,2.1h13.82c7.22,0,7.22-3.93,7.22-5.4v-2.06c0-2.5-0.46-3.44-3.21-4.24l-23.08-6.83
				c-9.37-2.77-11.34-9.39-11.34-14.45v-2.6c0-10.17,8.04-17.83,18.73-17.83h12.94c4.49,0,8.74,1.41,11.97,3.97
				c3.36,2.67,5.42,6.24,5.42,9.33c0,0.53-0.1,7.41-0.25,9.28c-0.15,3-2.65,5.38-5.69,5.38h-0.67c-3.15,0-5.71-2.54-5.71-5.69
				l-0.21-7.73c-0.34-0.55-1.78-2.1-4.75-2.1h-12.24c-6.89,0-6.89,4.33-6.89,5.73v1.83c0,1.93,0,2.25,3.02,3.13l21.65,6.22
				C439.01,484.82,441.26,492.19,441.26,497.82z"/>
		</g>
		<g>
			<path class="st5" d="M535.06,511.09v0.67c0,3.15-2.56,5.71-5.71,5.71h-6.57c-5.33,0-9.22-3.84-9.22-9.12v-34.59
				c0-8.36-3.11-9.03-6.89-9.03h-4.18c-3.7,0-6.3,2.06-14.05,9.93v30.62l2.96,0.08c1.49,0,2.88,0.65,3.91,1.68
				c1.01,1.03,1.64,2.46,1.64,4.03v0.67c0,3.15-2.54,5.71-5.69,5.71h-18.61c-3.13,0-5.69-2.56-5.69-5.71v-0.67
				c0-3.15,2.56-5.71,5.69-5.71l3.02-0.08v-69.52l-3.17-0.08c-1.49,0-2.88-0.65-3.91-1.68c-1.01-1.03-1.64-2.46-1.64-4.01v-0.69
				c0-3.13,2.56-5.69,5.69-5.69h9.87c3.21,0,5.92,2.71,5.92,5.92v28.23c4.47-3.7,9.09-5.46,14.16-5.46H507
				c11.93,0,19.32,7.92,19.32,20.67v32.3l3.21,0.11c1.49,0,2.86,0.65,3.86,1.68C534.43,508.09,535.06,509.52,535.06,511.09z"/>
		</g>
	</g>
	<circle class="st6" cx="344.46" cy="435.94" r="7.46"/>
	<circle class="st6" cx="133.51" cy="435.94" r="7.46"/>
	<g>
		<path class="st5" d="M152.17,511.09v0.67c0,3.15-2.56,5.71-5.71,5.71h-18.82c-3.15,0-5.71-2.56-5.71-5.71v-0.67
			c0-3.15,2.56-5.71,5.71-5.71l3.02-0.08v-40.14l-3.17-0.08c-1.49,0-2.9-0.63-3.91-1.68c-1.03-1.03-1.66-2.46-1.66-4.03v-0.67
			c0-3.15,2.56-5.71,5.71-5.71h9.85c3.23,0,5.94,2.73,5.94,5.94v46.37l3.17,0.08c1.49,0,2.9,0.65,3.91,1.68
			C151.54,508.09,152.17,509.52,152.17,511.09z"/>
	</g>
</g>
<g>
	<g>
		<g>
			<g>
				<g>
					<path class="st10" d="M124.64,216.14c0,0-86.71,13.65-100.75-100.75C138.29,129.44,124.64,216.14,124.64,216.14z"/>
					<path class="st10" d="M124.64,261.81c0,0,13.65,86.71-100.75,100.75C37.94,248.16,124.64,261.81,124.64,261.81z"/>
				</g>
				<path class="st11" d="M119,212.31c-7.47-7.88-45.37-47.72-45.37-47.72"/>
				<path class="st11" d="M119,267.5c-7.47,7.88-43.46,45.66-43.46,45.66"/>
			</g>
			<path class="st12" d="M328,125.37v227.22c-88.25,0-147.48-33.47-164.69-87.93c-9.03-4.42-15.23-13.72-15.23-24.44
				s6.2-20.02,15.23-24.44C180.53,161.32,239.75,125.37,328,125.37z"/>
			<path class="st10" d="M550.11,261.9c-50.24,85.35-116.82,93.05-182.61,91.7V126.41C439.18,127.45,524.22,161.63,550.11,261.9z"/>
			<circle class="st3" cx="450.03" cy="214.07" r="12.47"/>
			<circle class="st3" cx="235.87" cy="291.41" r="8.66"/>
			<circle class="st3" cx="198.14" cy="253.16" r="7.19"/>
			<circle class="st3" cx="246.1" cy="248.67" r="7.19"/>
			<circle class="st3" cx="290.1" cy="309.13" r="7.19"/>
			<path class="st10" d="M549.44,259.83c-37.37,42.37-75.07,13.75-75.07,13.75"/>
		</g>
	</g>
</g>
</svg>
